<svg width="78" height="91" viewBox="0 0 78 91" fill="none" xmlns="http://www.w3.org/2000/svg">
<path d="M41.3471 21.5185L32.1369 29.9023L22.9289 21.5185C22.2022 20.8582 21.0788 20.9081 20.4114 21.6372C19.7512 22.364 19.8011 23.4921 20.5302 24.1547L29.4887 32.3129L22.8411 38.3644C22.1119 39.027 22.0621 40.1528 22.7223 40.8819C23.0738 41.2691 23.5583 41.4638 24.0405 41.4638C24.4703 41.4638 24.8978 41.3118 25.2398 41.0007L32.1369 34.7212L39.0339 41.0007C39.3759 41.3118 39.8034 41.4638 40.2333 41.4638C40.7154 41.4638 41.1975 41.2667 41.5514 40.8819C42.2116 40.1552 42.1618 39.027 41.4326 38.3644L34.785 32.3129L43.7483 24.1547C44.4774 23.4921 44.5273 22.3664 43.867 21.6372C43.1973 20.9081 42.0715 20.8606 41.3471 21.5185Z" fill="url(#paint0_linear)"/>
<g filter="url(#filter0_di)">
<path d="M53.5785 67.2566C53.5785 66.1118 53.9609 64.9932 54.6568 64.1049C60.0694 57.2079 59.3546 48.7481 52.7877 42.0292C51.8068 41.027 51.2653 39.7255 51.2653 38.3694V23.9982C51.2677 21.0959 48.9093 18.7328 46.0165 18.7328C43.1238 18.7328 40.7654 21.0959 40.7654 23.9982V33.2916C40.7654 38.0749 36.8941 41.9651 32.137 41.9651C27.3798 41.9651 23.5086 38.0725 23.5086 33.2916V23.9982C23.5086 21.0959 21.1526 18.7328 18.2574 18.7328C15.3623 18.7328 13.0063 21.0888 13.0063 23.9839V38.3884C13.0063 39.735 12.4672 41.027 11.491 42.0269C4.9075 48.7743 4.19263 57.2507 9.62427 64.1477C10.313 65.0217 10.6906 66.1356 10.6906 67.2874V67.4204H53.5785V67.2566Z" fill="url(#paint1_linear)"/>
</g>
<path d="M10.6934 67.4203L10.6957 69.306C10.6957 72.8495 13.5695 75.7328 17.1011 75.7328H47.1711C50.7051 75.7328 53.5789 72.8495 53.5789 69.306V67.4203H10.6934Z" fill="url(#paint2_linear)"/>
<g filter="url(#filter1_bd)">
<path d="M43.9999 70.9828C42.6913 70.9828 41.6249 72.0492 41.6249 73.3578C41.6249 74.6664 42.6913 75.7328 43.9999 75.7328C45.3085 75.7328 46.3749 74.6664 46.3749 73.3578C46.3749 72.0492 45.3085 70.9828 43.9999 70.9828Z" fill="url(#paint3_linear)"/>
<path d="M41.7569 73.3578C41.7569 72.1221 42.7642 71.1148 43.9999 71.1148C45.2356 71.1148 46.2429 72.1221 46.2429 73.3578C46.2429 74.5935 45.2356 75.6008 43.9999 75.6008C42.7642 75.6008 41.7569 74.5935 41.7569 73.3578Z" stroke="url(#paint4_linear)" stroke-opacity="0.5" stroke-width="0.263998"/>
</g>
<g filter="url(#filter2_bd)">
<path d="M53.5 70.9828C52.1914 70.9828 51.125 72.0492 51.125 73.3578C51.125 74.6664 52.1914 75.7328 53.5 75.7328C54.8086 75.7328 55.875 74.6664 55.875 73.3578C55.875 72.0492 54.8086 70.9828 53.5 70.9828Z" fill="url(#paint5_linear)"/>
<path d="M51.257 73.3578C51.257 72.1221 52.2643 71.1148 53.5 71.1148C54.7357 71.1148 55.743 72.1221 55.743 73.3578C55.743 74.5935 54.7357 75.6008 53.5 75.6008C52.2643 75.6008 51.257 74.5935 51.257 73.3578Z" stroke="url(#paint6_linear)" stroke-opacity="0.5" stroke-width="0.263998"/>
</g>
<g filter="url(#filter3_bd)">
<path d="M61.6632 46.6959C60.7037 46.4465 59.737 47.0237 59.4924 47.976L57.8465 54.3577H36.2814C35.7399 54.3577 35.2293 54.6023 34.8921 55.0251C34.5524 55.4454 34.4266 55.9988 34.5429 56.5261L36.918 67.2136C37.0985 68.0282 37.8205 68.6077 38.6565 68.6077H56.469C57.2813 68.6077 57.9914 68.0591 58.1933 67.273L62.9433 48.8667C63.1903 47.9119 62.6155 46.9405 61.6632 46.6959Z" fill="url(#paint7_linear)"/>
<path d="M61.63 46.8237L61.6303 46.8238C62.512 47.0502 63.0442 47.9495 62.8155 48.8336L62.8155 48.8337L58.0655 67.24L58.0654 67.2401C57.8786 67.9676 57.2213 68.4757 56.469 68.4757H38.6565C37.8823 68.4757 37.2139 67.9392 37.0468 67.185L37.0468 67.185L34.6718 56.4976C34.6718 56.4976 34.6718 56.4975 34.6718 56.4974C34.564 56.0087 34.6809 55.4965 34.9947 55.108L34.9953 55.1074C35.3073 54.7162 35.7799 54.4897 36.2814 54.4897H57.8465H57.9488L57.9743 54.3906L59.6202 48.009L59.6202 48.0089C59.8468 47.1268 60.7416 46.5928 61.63 46.8237Z" stroke="url(#paint8_linear)" stroke-opacity="0.5" stroke-width="0.263998"/>
</g>
<defs>
<filter id="filter0_di" x="-4" y="0.732788" width="80.2668" height="76.6877" filterUnits="userSpaceOnUse" color-interpolation-filters="sRGB">
<feFlood flood-opacity="0" result="BackgroundImageFix"/>
<feColorMatrix in="SourceAlpha" type="matrix" values="0 0 0 0 0 0 0 0 0 0 0 0 0 0 0 0 0 0 127 0" result="hardAlpha"/>
<feOffset dx="6" dy="-6"/>
<feGaussianBlur stdDeviation="6"/>
<feColorMatrix type="matrix" values="0 0 0 0 0.996078 0 0 0 0 0.317647 0 0 0 0 0.588235 0 0 0 0.2 0"/>
<feBlend mode="normal" in2="BackgroundImageFix" result="effect1_dropShadow"/>
<feBlend mode="normal" in="SourceGraphic" in2="effect1_dropShadow" result="shape"/>
<feColorMatrix in="SourceAlpha" type="matrix" values="0 0 0 0 0 0 0 0 0 0 0 0 0 0 0 0 0 0 127 0" result="hardAlpha"/>
<feOffset dx="-10" dy="10"/>
<feGaussianBlur stdDeviation="10"/>
<feComposite in2="hardAlpha" operator="arithmetic" k2="-1" k3="1"/>
<feColorMatrix type="matrix" values="0 0 0 0 1 0 0 0 0 1 0 0 0 0 1 0 0 0 0.24 0"/>
<feBlend mode="normal" in2="shape" result="effect2_innerShadow"/>
</filter>
<filter id="filter1_bd" x="21.825" y="51.1829" width="44.3497" height="44.3497" filterUnits="userSpaceOnUse" color-interpolation-filters="sRGB">
<feFlood flood-opacity="0" result="BackgroundImageFix"/>
<feGaussianBlur in="BackgroundImage" stdDeviation="9.89992"/>
<feComposite in2="SourceAlpha" operator="in" result="effect1_backgroundBlur"/>
<feColorMatrix in="SourceAlpha" type="matrix" values="0 0 0 0 0 0 0 0 0 0 0 0 0 0 0 0 0 0 127 0" result="hardAlpha"/>
<feOffset dx="5" dy="5"/>
<feGaussianBlur stdDeviation="5"/>
<feColorMatrix type="matrix" values="0 0 0 0 0.996078 0 0 0 0 0.654902 0 0 0 0 0.407843 0 0 0 0.21 0"/>
<feBlend mode="normal" in2="effect1_backgroundBlur" result="effect2_dropShadow"/>
<feBlend mode="normal" in="SourceGraphic" in2="effect2_dropShadow" result="shape"/>
</filter>
<filter id="filter2_bd" x="31.3252" y="51.1829" width="44.3497" height="44.3497" filterUnits="userSpaceOnUse" color-interpolation-filters="sRGB">
<feFlood flood-opacity="0" result="BackgroundImageFix"/>
<feGaussianBlur in="BackgroundImage" stdDeviation="9.89992"/>
<feComposite in2="SourceAlpha" operator="in" result="effect1_backgroundBlur"/>
<feColorMatrix in="SourceAlpha" type="matrix" values="0 0 0 0 0 0 0 0 0 0 0 0 0 0 0 0 0 0 127 0" result="hardAlpha"/>
<feOffset dx="5" dy="5"/>
<feGaussianBlur stdDeviation="5"/>
<feColorMatrix type="matrix" values="0 0 0 0 0.996078 0 0 0 0 0.654902 0 0 0 0 0.407843 0 0 0 0.21 0"/>
<feBlend mode="normal" in2="effect1_backgroundBlur" result="effect2_dropShadow"/>
<feBlend mode="normal" in="SourceGraphic" in2="effect2_dropShadow" result="shape"/>
</filter>
<filter id="filter3_bd" x="14.7008" y="26.838" width="68.0997" height="61.5696" filterUnits="userSpaceOnUse" color-interpolation-filters="sRGB">
<feFlood flood-opacity="0" result="BackgroundImageFix"/>
<feGaussianBlur in="BackgroundImage" stdDeviation="9.89992"/>
<feComposite in2="SourceAlpha" operator="in" result="effect1_backgroundBlur"/>
<feColorMatrix in="SourceAlpha" type="matrix" values="0 0 0 0 0 0 0 0 0 0 0 0 0 0 0 0 0 0 127 0" result="hardAlpha"/>
<feOffset dx="5" dy="5"/>
<feGaussianBlur stdDeviation="5"/>
<feColorMatrix type="matrix" values="0 0 0 0 0.996078 0 0 0 0 0.654902 0 0 0 0 0.407843 0 0 0 0.21 0"/>
<feBlend mode="normal" in2="effect1_backgroundBlur" result="effect2_dropShadow"/>
<feBlend mode="normal" in="SourceGraphic" in2="effect2_dropShadow" result="shape"/>
</filter>
<linearGradient id="paint0_linear" x1="32.942" y1="31.4213" x2="15.0184" y2="44.5371" gradientUnits="userSpaceOnUse">
<stop stop-color="#FFB37F"/>
<stop offset="1" stop-color="#FF7B0D"/>
</linearGradient>
<linearGradient id="paint1_linear" x1="6" y1="43.0766" x2="58.2668" y2="43.0766" gradientUnits="userSpaceOnUse">
<stop stop-color="#FF6F6F"/>
<stop offset="1" stop-color="#FE5196"/>
<stop offset="1" stop-color="#FF0066"/>
</linearGradient>
<linearGradient id="paint2_linear" x1="33.5481" y1="71.6425" x2="29.1418" y2="85.5664" gradientUnits="userSpaceOnUse">
<stop stop-color="#FFB37F"/>
<stop offset="1" stop-color="#FF7B0D"/>
</linearGradient>
<linearGradient id="paint3_linear" x1="46.0381" y1="71.8405" x2="40.1189" y2="71.0221" gradientUnits="userSpaceOnUse">
<stop stop-color="white"/>
<stop offset="0.760063" stop-color="white" stop-opacity="0.61"/>
</linearGradient>
<linearGradient id="paint4_linear" x1="42.1366" y1="72.5762" x2="46.4022" y2="74.5967" gradientUnits="userSpaceOnUse">
<stop stop-color="white"/>
<stop offset="1" stop-color="white" stop-opacity="0"/>
</linearGradient>
<linearGradient id="paint5_linear" x1="55.5383" y1="71.8405" x2="49.619" y2="71.0221" gradientUnits="userSpaceOnUse">
<stop stop-color="white"/>
<stop offset="0.760063" stop-color="white" stop-opacity="0.61"/>
</linearGradient>
<linearGradient id="paint6_linear" x1="51.6367" y1="72.5762" x2="55.9024" y2="74.5967" gradientUnits="userSpaceOnUse">
<stop stop-color="white"/>
<stop offset="1" stop-color="white" stop-opacity="0"/>
</linearGradient>
<linearGradient id="paint7_linear" x1="60.9799" y1="50.6051" x2="25.914" y2="44.3153" gradientUnits="userSpaceOnUse">
<stop stop-color="white"/>
<stop offset="0.760063" stop-color="white" stop-opacity="0.61"/>
</linearGradient>
<linearGradient id="paint8_linear" x1="37.5707" y1="54.0077" x2="60.3185" y2="67.9848" gradientUnits="userSpaceOnUse">
<stop stop-color="white"/>
<stop offset="1" stop-color="white" stop-opacity="0"/>
</linearGradient>
</defs>
</svg>
